<svg width="43" height="43" viewBox="0 0 43 43" fill="none" xmlns="http://www.w3.org/2000/svg">
<path d="M15.0383 14.2723C14.9516 12.4683 15.5827 10.7033 16.7936 9.36332C18.0045 8.0233 19.6967 7.21723 21.5002 7.12136C23.3037 7.21723 24.996 8.0233 26.2069 9.36332C27.4178 10.7033 28.0488 12.4683 27.9621 14.2723C28.0458 16.074 27.4133 17.8357 26.2026 19.1726C24.9919 20.5096 23.3014 21.3131 21.5002 21.4079C19.699 21.3131 18.0085 20.5096 16.7978 19.1726C15.5871 17.8357 14.9546 16.074 15.0383 14.2723ZM42.999 21.4998C43.0055 25.7676 41.7305 29.9392 39.3393 33.4742C39.2767 33.5822 39.2049 33.6846 39.1249 33.7804C37.1492 36.6253 34.5143 38.9496 31.4451 40.5549C28.3759 42.1601 24.9638 42.9986 21.5002 42.9986C18.0366 42.9986 14.6245 42.1601 11.5553 40.5549C8.48615 38.9496 5.85119 36.6253 3.87552 33.7804C3.79547 33.6846 3.72375 33.5822 3.66115 33.4742C1.7892 30.6858 0.596715 27.4977 0.179331 24.1653C-0.238052 20.8329 0.13128 17.4491 1.25771 14.2852C2.38414 11.1213 4.23631 8.26545 6.66569 5.9466C9.09507 3.62776 12.034 1.91047 15.2469 0.932483C18.4598 -0.0455073 21.8571 -0.256988 25.1664 0.315002C28.4758 0.886991 31.605 2.22653 34.3032 4.2262C37.0014 6.22586 39.1935 8.82999 40.7036 11.8297C42.2137 14.8295 42.9998 18.1414 42.999 21.4998ZM2.29833 21.4998C2.29258 24.7622 3.12008 27.9721 4.7024 30.8251C8.02521 26.461 14.3952 23.7354 21.5002 23.7354C28.6052 23.7354 34.9752 26.461 38.298 30.8251C39.721 28.2614 40.538 25.4059 40.6866 22.4775C40.8352 19.5492 40.3113 16.6257 39.1551 13.9311C37.999 11.2365 36.2412 8.84243 34.0166 6.93233C31.7919 5.02223 29.1595 3.64684 26.3211 2.91157C23.4826 2.1763 20.5135 2.10068 17.6413 2.6905C14.7691 3.28032 12.0701 4.51992 9.75107 6.3143C7.4321 8.10867 5.55474 10.4102 4.2629 13.0424C2.97106 15.6746 2.29903 18.5677 2.29833 21.4998Z" fill="black"/>
</svg>
