<svg width="100" height="100" viewBox="0 0 100 100" fill="none" xmlns="http://www.w3.org/2000/svg">
<g clip-path="url(#clip0_1970_1251)">
<path d="M85.3556 14.6446C75.9122 5.20099 63.3561 0 50.0004 0C45.3383 0 40.7215 0.641798 36.2772 1.90762C35.4133 2.15372 34.9121 3.05372 35.1584 3.91778C35.4045 4.78165 36.3033 5.28321 37.1686 5.03653C41.3229 3.85333 45.6401 3.25333 50.0004 3.25333C62.487 3.25333 74.2261 8.11584 83.0552 16.9452C91.8845 25.7745 96.747 37.5136 96.747 49.9999C96.747 67.2447 87.3001 83.0336 72.0931 91.2049C71.3018 91.6301 71.0046 92.6164 71.43 93.4078C71.7237 93.9543 72.2845 94.265 72.8643 94.265C73.1241 94.265 73.388 94.2025 73.6329 94.0709C89.897 85.3316 100 68.4449 100 50.0001C100 36.6444 94.7991 24.0885 85.3556 14.6446Z" fill="#2C0186"/>
<path d="M71.2388 20.8723C71.1929 20.3895 70.9339 19.9522 70.5325 19.6799C64.4624 15.5615 57.3622 13.3848 50.0003 13.3848C29.8104 13.3848 13.3848 29.8104 13.3848 50.0003C13.3848 57.3618 15.5615 64.4618 19.6797 70.5321C19.9522 70.9337 20.3893 71.1923 20.8723 71.2384C20.9236 71.2431 20.975 71.2458 21.0262 71.2458C21.4555 71.2458 21.8699 71.0757 22.1764 70.7693L70.7697 22.1762C71.1124 21.8332 71.2845 21.3551 71.2388 20.8723ZM21.3092 67.0353C18.2473 61.8923 16.6381 56.0438 16.6381 50.0005C16.6381 31.6045 31.6041 16.6385 50.0001 16.6385C56.0436 16.6385 61.8921 18.2475 67.0349 21.3096L21.3092 67.0353Z" fill="#2C0186"/>
<path d="M68.0044 94.9393C67.6986 94.0942 66.7656 93.6582 65.9208 93.9637C60.8238 95.8102 55.4671 96.7463 50.0001 96.7463C37.5137 96.7463 25.7747 91.8838 16.9453 83.0545C8.11584 74.2252 3.25333 62.4861 3.25333 49.9995C3.25333 40.863 5.88888 32.0136 10.8756 24.4075C15.7366 16.9922 22.5577 11.1313 30.6012 7.45746C31.4184 7.08421 31.7784 6.11917 31.4051 5.30199C31.0319 4.4848 30.0667 4.12483 29.2497 4.49788C20.6475 8.42699 13.3528 14.6948 8.1549 22.6237C2.81993 30.7614 0 40.2278 0 49.9995C0 63.355 5.20099 75.9111 14.645 85.3549C24.0889 94.7987 36.6448 99.9994 50.0003 99.9994C55.8462 99.9996 61.5755 98.9981 67.029 97.0227C67.8736 96.7168 68.3101 95.7842 68.0044 94.9393Z" fill="#2C0186"/>
<path d="M80.3203 29.4683C80.048 29.0667 79.6107 28.8081 79.1279 28.762C78.6456 28.7167 78.1665 28.8882 77.8236 29.2312L29.2303 77.8242C28.8873 78.1672 28.7155 78.6453 28.7612 79.1283C28.8071 79.6112 29.0658 80.0485 29.4674 80.3209C35.5375 84.4393 42.6378 86.6161 49.9997 86.6161C70.1896 86.6161 86.6152 70.1904 86.6152 50.0006C86.615 42.6384 84.4384 35.5384 80.3203 29.4683ZM49.9995 83.3623C43.9559 83.3623 38.1075 81.7534 32.9647 78.6912L78.6908 32.9656C81.7523 38.108 83.3617 43.9572 83.3617 50.0004C83.3615 68.3963 68.3954 83.3623 49.9995 83.3623Z" fill="#2C0186"/>
</g>
<defs>
<clipPath id="clip0_1970_1251">
<rect width="100" height="100" fill="white"/>
</clipPath>
</defs>
</svg>
