<svg width="33" height="34" viewBox="0 0 33 34" fill="none" xmlns="http://www.w3.org/2000/svg">
<path d="M10.1667 22.3333C11.7775 22.3333 13.0833 21.0275 13.0833 19.4167C13.0833 17.8058 11.7775 16.5 10.1667 16.5C8.55584 16.5 7.25 17.8058 7.25 19.4167C7.25 21.0275 8.55584 22.3333 10.1667 22.3333Z" fill="#2A0181" stroke="#2A0181" stroke-width="2" stroke-linecap="round" stroke-linejoin="round"/>
<path d="M21.8327 22.3333C23.4435 22.3333 24.7493 21.0275 24.7493 19.4167C24.7493 17.8058 23.4435 16.5 21.8327 16.5C20.2219 16.5 18.916 17.8058 18.916 19.4167C18.916 21.0275 20.2219 22.3333 21.8327 22.3333Z" fill="#2A0181" stroke="#2A0181" stroke-width="2" stroke-linecap="round" stroke-linejoin="round"/>
<path d="M15.9997 10.6654C17.6105 10.6654 18.9163 9.35953 18.9163 7.7487C18.9163 6.13787 17.6105 4.83203 15.9997 4.83203C14.3888 4.83203 13.083 6.13787 13.083 7.7487C13.083 9.35953 14.3888 10.6654 15.9997 10.6654Z" fill="#2A0181" stroke="#2A0181" stroke-width="2" stroke-linecap="round" stroke-linejoin="round"/>
<path d="M4.33301 28.1641C4.33301 24.9423 6.94459 22.3307 10.1663 22.3307C13.3881 22.3307 15.9997 24.9423 15.9997 28.1641C15.9997 24.9423 18.6113 22.3307 21.833 22.3307C25.0548 22.3307 27.6663 24.9423 27.6663 28.1641M21.833 16.4974C21.833 13.2756 19.2214 10.6641 15.9997 10.6641C12.7779 10.6641 10.1663 13.2756 10.1663 16.4974" stroke="#2A0181" stroke-width="2" stroke-linecap="round" stroke-linejoin="round"/>
</svg>
