<svg width="39" height="33" viewBox="0 0 39 33" fill="none" xmlns="http://www.w3.org/2000/svg">
<g clip-path="url(#clip0_1437_122)">
<path d="M18.3836 16.3789C14.3071 16.3789 13.481 10.8408 13.481 10.8408C12.9961 7.95904 14.4687 4.70703 18.3297 4.70703C22.2087 4.70703 23.6813 7.95904 23.1964 10.8408C23.1964 10.8408 22.4601 16.3789 18.3836 16.3789ZM18.3836 20.5163L23.2682 17.5863C27.5603 17.5863 31.3854 21.3374 31.3854 24.8792V28.8878C31.3854 28.8878 24.8306 30.707 18.3836 30.707C11.8288 30.707 5.38184 28.8878 5.38184 28.8878V24.8792C5.38184 21.2569 8.86573 17.6668 13.4092 17.6668L18.3836 20.5163Z" fill="#2A0181"/>
</g>
<defs>
<clipPath id="clip0_1437_122">
<rect width="39" height="29.7274" fill="white" transform="translate(0 1.73438)"/>
</clipPath>
</defs>
</svg>
