<svg width="30" height="31" viewBox="0 0 30 31" fill="none" xmlns="http://www.w3.org/2000/svg">
<path d="M22.5 17.0469V14.5469H27.5V17.0469H22.5ZM24 25.7969L20 22.7969L21.5 20.7969L25.5 23.7969L24 25.7969ZM21.5 10.7969L20 8.79687L24 5.79688L25.5 7.79687L21.5 10.7969ZM6.25 24.5469V19.5469H5C4.3125 19.5469 3.72417 19.3023 3.235 18.8131C2.74583 18.324 2.50083 17.7352 2.5 17.0469V14.5469C2.5 13.8594 2.745 13.271 3.235 12.7819C3.725 12.2927 4.31333 12.0477 5 12.0469H10L16.25 8.29687V23.2969L10 19.5469H8.75V24.5469H6.25ZM17.5 19.9844V11.6094C18.0625 12.1094 18.5158 12.719 18.86 13.4381C19.2042 14.1573 19.3758 14.9435 19.375 15.7969C19.3742 16.6502 19.2021 17.4369 18.8588 18.1569C18.5154 18.8769 18.0625 19.486 17.5 19.9844Z" fill="#2A0181"/>
</svg>
