<svg width="30" height="31" viewBox="0 0 30 31" fill="none" xmlns="http://www.w3.org/2000/svg">
<path fill-rule="evenodd" clip-rule="evenodd" d="M4.08596 9.73986L12.7565 3.66861C13.222 3.34278 13.7978 3.21515 14.3574 3.3138C14.917 3.41246 15.4144 3.72931 15.7404 4.19469L17.1081 6.14736C17.1281 6.17594 17.1472 6.20504 17.1654 6.23469L4.08596 9.73986ZM1.15024 16.7808L0.557209 14.5672C0.410305 14.0182 0.487502 13.4333 0.77182 12.9412C1.05614 12.4492 1.52429 12.0902 2.07328 11.9433L23.8061 6.12004C24.3551 5.97294 24.9399 6.04991 25.4321 6.33402C25.9243 6.61814 26.2835 7.08613 26.4306 7.63504L27.0472 9.93754C27.1343 10.2626 27.1238 10.6061 27.017 10.9252C26.9102 11.2444 26.7119 11.525 26.4467 11.7322C26.0299 12.0572 25.7186 12.4983 25.5519 12.9999C25.3852 13.5015 25.3706 14.0411 25.51 14.551C25.6493 15.0608 25.9363 15.5181 26.3349 15.8652C26.7335 16.2123 27.2259 16.4337 27.7501 16.5016C28.0738 16.5439 28.3777 16.6812 28.6234 16.8963C28.869 17.1113 29.0454 17.3944 29.1301 17.7097L29.7579 20.0545C29.905 20.6034 29.8281 21.1883 29.5439 21.6805C29.2598 22.1727 28.7918 22.5318 28.2429 22.679L6.50899 28.5022C5.96014 28.6491 5.3754 28.5721 4.88335 28.288C4.39129 28.0039 4.03221 27.536 3.88507 26.9872L3.29417 24.7811C3.20078 24.434 3.20975 24.0672 3.32001 23.725C3.43026 23.3829 3.6371 23.0799 3.9156 22.8525C4.31579 22.5259 4.613 22.0905 4.77144 21.5988C4.92988 21.1071 4.9428 20.5801 4.80863 20.0813C4.67446 19.5824 4.39893 19.133 4.01523 18.7871C3.63153 18.4412 3.15601 18.2137 2.64596 18.1318C2.29311 18.0749 1.96424 17.9172 1.69897 17.6777C1.43369 17.4382 1.24332 17.127 1.15078 16.7818M20.1569 13.1984C20.3631 13.146 20.5569 13.0532 20.727 12.9253C20.8971 12.7974 21.0401 12.637 21.1478 12.4534C21.2554 12.2698 21.3254 12.0666 21.3539 11.8557C21.3824 11.6448 21.3686 11.4303 21.3136 11.2247C21.2585 11.0192 21.1631 10.8266 21.033 10.6582C20.9029 10.4898 20.7406 10.3489 20.5556 10.2437C20.3706 10.1385 20.1665 10.0711 19.9553 10.0454C19.744 10.0197 19.5297 10.0362 19.3249 10.094C18.9182 10.2087 18.573 10.479 18.3641 10.8464C18.1552 11.2137 18.0994 11.6486 18.2088 12.0568C18.3182 12.465 18.584 12.8137 18.9486 13.0273C19.3132 13.241 19.7473 13.3025 20.1569 13.1984ZM21.2658 17.3384C21.4697 17.2838 21.6608 17.1896 21.8283 17.0612C21.9957 16.9327 22.1362 16.7725 22.2418 16.5898C22.3474 16.407 22.4159 16.2052 22.4435 15.996C22.4711 15.7867 22.4572 15.5741 22.4026 15.3702C22.348 15.1663 22.2538 14.9752 22.1253 14.8077C21.9968 14.6403 21.8367 14.4998 21.6539 14.3942C21.4711 14.2886 21.2694 14.2201 21.0601 14.1925C20.8509 14.1649 20.6382 14.1788 20.4344 14.2334C20.0226 14.3438 19.6715 14.6131 19.4584 14.9823C19.2453 15.3515 19.1875 15.7902 19.2978 16.2019C19.4082 16.6137 19.6775 16.9647 20.0467 17.1779C20.4159 17.391 20.854 17.4488 21.2658 17.3384ZM22.3758 21.4779C22.5826 21.4261 22.777 21.3336 22.9478 21.2058C23.1185 21.0781 23.2621 20.9177 23.3702 20.7339C23.4783 20.5501 23.5488 20.3466 23.5775 20.1354C23.6062 19.9241 23.5926 19.7092 23.5374 19.5032C23.4823 19.2973 23.3867 19.1043 23.2562 18.9357C23.1257 18.767 22.963 18.626 22.7775 18.5209C22.592 18.4157 22.3875 18.3485 22.1758 18.3232C21.964 18.2979 21.7494 18.315 21.5444 18.3734C21.1387 18.4891 20.7948 18.7595 20.5868 19.1264C20.3789 19.4934 20.3234 19.9273 20.4326 20.3348C20.5417 20.7422 20.8066 21.0904 21.1701 21.3042C21.5336 21.5181 21.9667 21.5805 22.3758 21.4779Z" fill="#2A0181"/>
</svg>
