<svg width="29" height="30" viewBox="0 0 29 30" fill="none" xmlns="http://www.w3.org/2000/svg">
<path d="M25.8587 18.0169L17.2191 26.6565C16.9774 26.8982 16.7055 27.0794 16.4035 27.2003C16.1014 27.3211 15.7993 27.3815 15.4972 27.3815C15.1951 27.3815 14.893 27.3211 14.591 27.2003C14.2889 27.0794 14.017 26.8982 13.7753 26.6565L3.11178 15.993C2.89026 15.7714 2.71908 15.5149 2.59824 15.2233C2.47741 14.9316 2.41699 14.6243 2.41699 14.3013V5.63151C2.41699 4.96693 2.65383 4.3982 3.12749 3.92534C3.60116 3.45248 4.16988 3.21565 4.83366 3.21484H13.5035C13.8257 3.21484 14.1378 3.2805 14.4399 3.4118C14.742 3.54311 15.0038 3.71912 15.2253 3.93984L25.8587 14.6034C26.1003 14.8451 26.2767 15.1169 26.3879 15.419C26.4991 15.7211 26.5543 16.0232 26.5535 16.3253C26.5526 16.6273 26.4975 16.9246 26.3879 17.217C26.2784 17.5094 26.1019 17.7761 25.8587 18.0169ZM7.85449 10.4648C8.35796 10.4648 8.78612 10.2888 9.13895 9.9368C9.49178 9.58477 9.6678 9.15662 9.66699 8.65234C9.66619 8.14807 9.49017 7.72032 9.13895 7.36909C8.78773 7.01787 8.35958 6.84145 7.85449 6.83984C7.34941 6.83823 6.92166 7.01465 6.57124 7.36909C6.22083 7.72354 6.04441 8.15129 6.04199 8.65234C6.03958 9.1534 6.21599 9.58155 6.57124 9.9368C6.92649 10.2921 7.35424 10.4681 7.85449 10.4648ZM15.7087 21.944L19.9378 17.7148C20.1594 17.4933 20.3358 17.2315 20.4671 16.9294C20.5984 16.6273 20.6636 16.3051 20.6628 15.9628C20.6628 15.278 20.4212 14.694 19.9378 14.2107C19.4545 13.7273 18.8705 13.4857 18.1857 13.4857C17.8031 13.4857 17.4257 13.5964 17.0535 13.818C16.6814 14.0395 16.2331 14.4121 15.7087 14.9357C15.1045 14.3718 14.6312 13.9891 14.2889 13.7878C13.9465 13.5864 13.5941 13.4857 13.2316 13.4857C12.5469 13.4857 11.9628 13.7273 11.4795 14.2107C10.9962 14.694 10.7545 15.278 10.7545 15.9628C10.7545 16.3051 10.8201 16.6273 10.9515 16.9294C11.0828 17.2315 11.2588 17.4933 11.4795 17.7148L15.7087 21.944Z" fill="#2A0181"/>
</svg>
