<svg width="33" height="31" viewBox="0 0 33 31" fill="none" xmlns="http://www.w3.org/2000/svg">
<path d="M24.5493 11.4669L23.1898 10.7006C21.8263 9.93187 21.1452 9.54688 20.392 9.54688C19.6389 9.54688 18.9578 9.93187 17.5943 10.7006L16.2348 11.4669C14.9447 12.1944 14.3003 12.5581 13.9482 13.1444C13.5947 13.7319 13.5947 14.4381 13.5947 15.8519V23.1831C13.5947 25.5944 13.5947 26.7994 14.3914 27.5481C15.188 28.2969 16.4686 28.2969 19.0326 28.2969H21.7515C24.3154 28.2969 25.596 28.2969 26.3927 27.5469C27.1893 26.7994 27.1893 25.5944 27.1893 23.1844V15.8519C27.1893 14.4381 27.1893 13.7306 26.8359 13.1444C26.4824 12.5581 25.8394 12.1944 24.5493 11.4669Z" stroke="#2A0181" stroke-width="2" stroke-linecap="round" stroke-linejoin="round"/>
<path d="M19.0325 9.68174C18.1638 8.91549 17.6458 8.51299 16.9892 8.36174C16.2279 8.18549 15.4286 8.38299 13.8285 8.77799L12.2352 9.17049C10.7221 9.54549 9.96489 9.73049 9.44013 10.1917C8.91402 10.6542 8.7101 11.3092 8.30363 12.6205L6.19102 19.418C5.4977 21.653 5.14968 22.7705 5.73968 23.6517C6.2454 24.408 8.271 25.3392 10.1974 25.7967" stroke="#2A0181" stroke-width="2" stroke-linecap="round" stroke-linejoin="round"/>
<path d="M19.7055 13.2965C20.8488 12.5965 21.8643 11.4752 22.4951 10.0802C23.7975 7.199 22.9668 4.24275 20.6422 3.479C18.3161 2.714 15.3743 4.429 14.0719 7.31025C13.8606 7.77472 13.7008 8.25757 13.5947 8.7515" stroke="#2A0181" stroke-width="2" stroke-linecap="round" stroke-linejoin="round"/>
</svg>
