<svg width="29" height="30" viewBox="0 0 29 30" fill="none" xmlns="http://www.w3.org/2000/svg">
<path d="M19.3337 4.42188C20.2583 4.42182 21.148 4.7751 21.8207 5.40943C22.4935 6.04375 22.8984 6.91117 22.9526 7.83421L22.9587 8.04688V20.1302H23.8649C24.6467 20.1302 25.2907 20.7247 25.3681 21.486L25.3753 21.6406V23.7552C25.3754 24.6798 25.0221 25.5695 24.3878 26.2423C23.7535 26.915 22.886 27.3199 21.963 27.3742L21.7503 27.3802H9.66699C8.74236 27.3803 7.85266 27.027 7.17993 26.3927C6.50719 25.7583 6.10228 24.8909 6.04803 23.9679L6.04199 23.7552V11.6719H3.92741C3.55348 11.672 3.19278 11.5335 2.91511 11.2831C2.63744 11.0326 2.46253 10.6881 2.42424 10.3161L2.41699 10.1615V8.04688C2.41694 7.12225 2.77022 6.23254 3.40454 5.55981C4.03887 4.88707 4.90629 4.48216 5.82933 4.42792L6.04199 4.42188H19.3337ZM19.3337 6.83854H8.45866V23.7552C8.45866 24.0757 8.58597 24.383 8.81257 24.6096C9.03918 24.8362 9.34652 24.9635 9.66699 24.9635C9.98746 24.9635 10.2948 24.8362 10.5214 24.6096C10.748 24.383 10.8753 24.0757 10.8753 23.7552V21.6406C10.8753 20.8069 11.552 20.1302 12.3857 20.1302H20.542V8.04688C20.542 7.72641 20.4147 7.41906 20.1881 7.19245C19.9615 6.96585 19.6541 6.83854 19.3337 6.83854ZM22.9587 22.5469H13.292V23.7552C13.292 24.1781 13.2195 24.5853 13.0866 24.9635H21.7503C22.0708 24.9635 22.3781 24.8362 22.6047 24.6096C22.8314 24.383 22.9587 24.0757 22.9587 23.7552V22.5469ZM14.5003 15.2969C14.8208 15.2969 15.1281 15.4242 15.3547 15.6508C15.5814 15.8774 15.7087 16.1847 15.7087 16.5052C15.7087 16.8257 15.5814 17.133 15.3547 17.3596C15.1281 17.5862 14.8208 17.7135 14.5003 17.7135H12.0837C11.7632 17.7135 11.4558 17.5862 11.2292 17.3596C11.0026 17.133 10.8753 16.8257 10.8753 16.5052C10.8753 16.1847 11.0026 15.8774 11.2292 15.6508C11.4558 15.4242 11.7632 15.2969 12.0837 15.2969H14.5003ZM16.917 10.4635C17.2375 10.4635 17.5448 10.5908 17.7714 10.8175C17.998 11.0441 18.1253 11.3514 18.1253 11.6719C18.1253 11.9923 17.998 12.2997 17.7714 12.5263C17.5448 12.7529 17.2375 12.8802 16.917 12.8802H12.0837C11.7632 12.8802 11.4558 12.7529 11.2292 12.5263C11.0026 12.2997 10.8753 11.9923 10.8753 11.6719C10.8753 11.3514 11.0026 11.0441 11.2292 10.8175C11.4558 10.5908 11.7632 10.4635 12.0837 10.4635H16.917ZM6.04199 6.83854C5.74603 6.83858 5.46038 6.94724 5.23921 7.14391C5.01804 7.34057 4.87674 7.61157 4.84212 7.9055L4.83366 8.04688V9.25521H6.04199V6.83854Z" fill="#2A0181"/>
</svg>
