<svg width="29" height="30" viewBox="0 0 29 30" fill="none" xmlns="http://www.w3.org/2000/svg">
<path d="M10.6337 14.0294L13.2316 11.4013L11.5399 9.67943L10.2107 11.0086L8.51908 9.31693L9.81803 7.98776L8.45866 6.62838L5.83053 9.25651L10.6337 14.0294ZM20.542 23.968L23.1701 21.3398L21.8107 19.9805L20.4816 21.2794L18.7899 19.5878L20.0889 18.2586L18.367 16.5669L15.7691 19.1648L20.542 23.968ZM19.6055 8.56172L21.2972 10.2534L22.9889 8.56172L21.267 6.83984L19.6055 8.56172ZM8.76074 26.1732H3.62533V21.0378L8.91178 15.7513L2.41699 9.25651L8.45866 3.21484L14.9837 9.73984L21.2972 3.39609L26.3722 8.53151L20.0889 14.8451L26.5837 21.3398L20.542 27.3815L14.0472 20.8867L8.76074 26.1732Z" fill="#2A0181"/>
</svg>
