<svg width="29" height="30" viewBox="0 0 29 30" fill="none" xmlns="http://www.w3.org/2000/svg">
<path d="M21.1455 3.21484H9.66634C6.99696 3.21484 4.83301 5.3788 4.83301 8.04818V22.5482C4.83301 25.2176 6.99696 27.3815 9.66634 27.3815H21.1455C23.8149 27.3815 25.9788 25.2176 25.9788 22.5482V8.04818C25.9788 5.3788 23.8149 3.21484 21.1455 3.21484Z" stroke="#2A0181" stroke-width="2" stroke-linecap="round" stroke-linejoin="round"/>
<path d="M12.7959 17.3994C12.0359 17.9093 10.0445 18.9485 11.2577 20.2486C11.8498 20.8842 12.5108 21.3385 13.3397 21.3385H18.0763C18.9053 21.3385 19.5662 20.8842 20.1583 20.2486C21.3715 18.9485 19.3801 17.9093 18.6201 17.4006C17.761 16.8172 16.7465 16.5053 15.708 16.5053C14.6696 16.5053 13.655 16.8172 12.7959 17.4006M6.04134 8.04688H3.02051M6.04134 15.2969H3.02051M6.04134 22.5469H3.02051M18.1247 11.6719C18.1247 12.3128 17.8701 12.9275 17.4168 13.3807C16.9636 13.8339 16.3489 14.0885 15.708 14.0885C15.0671 14.0885 14.4524 13.8339 13.9992 13.3807C13.546 12.9275 13.2913 12.3128 13.2913 11.6719C13.2913 11.0309 13.546 10.4162 13.9992 9.96303C14.4524 9.50982 15.0671 9.25521 15.708 9.25521C16.3489 9.25521 16.9636 9.50982 17.4168 9.96303C17.8701 10.4162 18.1247 11.0309 18.1247 11.6719Z" stroke="#2A0181" stroke-width="2" stroke-linecap="round" stroke-linejoin="round"/>
</svg>
