<svg width="36" height="31" viewBox="0 0 36 31" fill="none" xmlns="http://www.w3.org/2000/svg">
<path d="M32.5423 25.5294C33.2587 25.5298 33.9474 25.8003 34.4658 26.2851C34.9843 26.7699 35.2926 27.4316 35.3271 28.1333C35.3615 28.8349 35.1193 29.5226 34.6507 30.054C34.1822 30.5853 33.5231 30.9195 32.8101 30.9872L32.5423 31H2.78934C2.07301 30.9997 1.38427 30.7291 0.865837 30.2443C0.347406 29.7596 0.0390284 29.0978 0.00460379 28.3962C-0.0298209 27.6945 0.212347 27.0068 0.680926 26.4755C1.1495 25.9441 1.80857 25.61 2.52156 25.5422L2.78934 25.5294H32.5423ZM32.5423 12.7647C33.2821 12.7647 33.9916 13.0529 34.5147 13.5659C35.0378 14.0788 35.3317 14.7746 35.3317 15.5C35.3317 16.2254 35.0378 16.9212 34.5147 17.4341C33.9916 17.9471 33.2821 18.2353 32.5423 18.2353H2.78934C2.04956 18.2353 1.34008 17.9471 0.816979 17.4341C0.293876 16.9212 0 16.2254 0 15.5C0 14.7746 0.293876 14.0788 0.816979 13.5659C1.34008 13.0529 2.04956 12.7647 2.78934 12.7647H32.5423ZM32.5423 0C33.2821 0 33.9916 0.288182 34.5147 0.801149C35.0378 1.31412 35.3317 2.00985 35.3317 2.73529C35.3317 3.46074 35.0378 4.15647 34.5147 4.66944C33.9916 5.18241 33.2821 5.47059 32.5423 5.47059H2.78934C2.04956 5.47059 1.34008 5.18241 0.816979 4.66944C0.293876 4.15647 0 3.46074 0 2.73529C0 2.00985 0.293876 1.31412 0.816979 0.801149C1.34008 0.288182 2.04956 0 2.78934 0H32.5423Z" fill="#3A4B4C"/>
</svg>
